<?xml version="1.0" encoding="UTF-8"?>
<svg id="Layer_2" data-name="Layer 2" xmlns="http://www.w3.org/2000/svg" viewBox="0 0 799.44 582.24">
  <defs>
    <style>
      .cls-1 {
        fill: #26a69c;
      }
    </style>
  </defs>
  <g id="Layer_1-2" data-name="Layer 1">
    <path class="cls-1" d="M799.4,179.24c0-.31-.04-.59-.04-.9-.04-1.17-.12-2.35-.23-3.52-.04-.55-.08-1.1-.12-1.64-.12-1.06-.23-2.11-.35-3.17-.12-.82-.2-1.6-.31-2.39-.08-.43-.16-.82-.23-1.21-.43-2.78-.98-5.48-1.64-8.14-.08-.23-.12-.47-.2-.7,0-.08-.04-.16-.04-.2-.31-1.17-.63-2.35-.98-3.48-.2-.63-.39-1.25-.59-1.88,0-.08-.04-.16-.08-.2v-.04c-12.95-39.87-50.4-68.71-94.61-68.71-54.93,0-99.46,44.53-99.46,99.46s44.53,99.46,99.46,99.46c44.21,0,81.66-28.84,94.61-68.71-.2,1.72-.39,3.44-.63,5.16-16.04,64.83-74.69,112.92-144.5,112.92-82.21,0-148.84-66.63-148.84-148.84,0-31.26,9.66-60.29,26.14-84.24L370.18,22.18c-37.29,42.92-59.86,98.99-59.86,160.34,0,135.07,109.48,244.54,244.58,244.54,101.3,0,188.2-61.59,225.33-149.35-39.4,113.78-147.55,195.48-274.75,195.48-160.54,0-290.67-130.14-290.67-290.67,0-32.24,5.24-63.27,14.99-92.22l-13.07-6.34L44.02,0C15.89,54.74,0,116.75,0,182.53c0,220.75,178.97,399.72,399.72,399.72s396.31-175.56,399.64-393.42c0-.98.04-2,.04-3.01.04-1.1.04-2.19.04-3.29s0-2.19-.04-3.29Z"/>
  </g>
</svg>