<svg width="1632" height="419" xmlns="http://www.w3.org/2000/svg" xmlns:xlink="http://www.w3.org/1999/xlink" xml:space="preserve" overflow="hidden"><g transform="translate(-1300 -912)"><g><g><g><path d="M575.196 128.969C575.196 128.746 575.168 128.545 575.168 128.322 575.139 127.48 575.081 126.631 575.002 125.789 574.973 125.393 574.945 124.998 574.916 124.609 574.829 123.846 574.75 123.091 574.664 122.328 574.578 121.738 574.52 121.177 574.441 120.608 574.383 120.299 574.326 120.018 574.275 119.738 573.966 117.738 573.57 115.795 573.095 113.881 573.038 113.715 573.009 113.543 572.951 113.377 572.951 113.32 572.923 113.262 572.923 113.233 572.7 112.391 572.469 111.542 572.218 110.729 572.074 110.276 571.937 109.83 571.793 109.377 571.793 109.319 571.764 109.261 571.735 109.233L571.735 109.204C562.417 80.516 535.471 59.7646 503.66 59.7646 464.136 59.7646 432.095 91.8055 432.095 131.33 432.095 170.854 464.136 202.895 503.66 202.895 535.471 202.895 562.417 182.143 571.735 153.455 571.591 154.693 571.455 155.93 571.282 157.168 559.741 203.816 517.54 238.418 467.309 238.418 408.156 238.418 360.214 190.475 360.214 131.322 360.214 108.83 367.164 87.9416 379.022 70.7087L266.358 15.9593C239.526 46.8417 223.286 87.1861 223.286 131.33 223.286 228.517 302.061 307.285 399.27 307.285 472.159 307.285 534.687 262.969 561.403 199.822 533.053 281.691 455.235 340.477 363.711 340.477 248.196 340.477 154.563 246.837 154.563 131.33 154.563 108.132 158.334 85.8046 165.349 64.974L155.945 60.4122 31.6739 0C11.4334 39.3874 0 84.0057 0 131.337 0 290.174 128.775 418.949 287.613 418.949 446.45 418.949 572.772 292.628 575.168 135.87 575.168 135.165 575.196 134.431 575.196 133.704 575.225 132.913 575.225 132.128 575.225 131.337 575.225 130.545 575.225 129.761 575.196 128.969Z" fill="#26A69C" transform="matrix(1.00135 0 0 1 1300 912.029)"/></g></g></g><path d="M2706.67 978 2727.13 978C2728.21 978 2729.12 978.349 2729.87 979.047 2730.62 979.745 2731 981.275 2731 983.636L2731 1212.15C2731 1216.45 2730.03 1219.1 2728.1 1220.12 2726.17 1221.14 2718.78 1222.38 2705.94 1223.83 2693.11 1225.28 2678.58 1226 2662.36 1226 2637.55 1226 2619.12 1223.8 2607.09 1219.4 2595.06 1215 2586.04 1206.41 2580.02 1193.63 2574.01 1180.86 2571 1163.73 2571 1142.26 2571 1111.98 2576.75 1089.04 2588.24 1073.42 2599.73 1057.79 2622.61 1049.98 2656.88 1049.98 2671.28 1049.98 2680.94 1050.17 2685.88 1050.55 2690.83 1050.92 2693.46 1051.11 2693.78 1051.11 2695.71 1051.11 2697.08 1050.74 2697.89 1049.98 2698.69 1049.23 2699.1 1047.78 2699.1 1045.64L2699.1 987.984C2699.1 984.227 2699.58 981.623 2700.55 980.174 2701.51 978.725 2703.55 978 2706.67 978ZM2660.43 1076.72C2644.96 1076.72 2633.44 1078.33 2625.86 1081.55 2618.29 1084.77 2612.65 1091.51 2608.95 1101.76 2605.24 1112.01 2603.39 1124.55 2603.39 1139.36 2603.39 1156.43 2605.35 1169.23 2609.27 1177.77 2613.19 1186.3 2618.88 1191.86 2626.35 1194.44 2633.81 1197.01 2645.17 1198.3 2660.43 1198.3 2684.06 1198.3 2696.41 1196.69 2697.49 1193.47 2698.56 1190.25 2699.1 1186.92 2699.1 1183.49L2699.1 1091.53C2699.1 1085.2 2697.97 1081.41 2695.71 1080.18 2693.46 1078.94 2688.19 1078.06 2679.92 1077.52 2671.65 1076.99 2665.15 1076.72 2660.43 1076.72Z" fill-rule="evenodd"/><path d="M2399.39 979 2425.07 979C2427.02 979 2428 980.661 2428 983.984L2428 1219.66C2428 1222.55 2426.59 1224 2423.77 1224L2411.42 1224C2405.13 1224 2400.82 1223.01 2398.5 1221.03 2396.17 1219.04 2395 1215.21 2395 1209.53L2395 983.662C2395 980.554 2396.46 979 2399.39 979Z" fill-rule="evenodd"/><path d="M2505.14 983C2512.98 983 2518.25 984.076 2520.95 986.226 2523.65 988.376 2525 993 2525 1000.1 2525 1006.98 2523.68 1011.68 2521.03 1014.21 2518.38 1016.74 2512.76 1018 2504.18 1018 2496.24 1018 2490.89 1017.01 2488.13 1015.02 2485.38 1013.03 2484 1008.54 2484 1001.55 2484 994.022 2485.48 989.048 2488.45 986.629 2491.42 984.21 2496.98 983 2505.14 983Z" fill-rule="evenodd"/><path d="M2086.25 1049C2113.79 1049 2129.8 1051.97 2134.28 1057.92 2138.76 1063.87 2141 1069.52 2141 1074.88 2141 1076.49 2140.41 1077.86 2139.22 1078.98 2138.03 1080.11 2136.95 1080.67 2135.98 1080.67 2135.76 1080.67 2130.93 1080.16 2121.48 1079.14 2112.03 1078.12 2101.75 1077.62 2090.62 1077.62 2074.97 1077.62 2062.98 1078.96 2054.66 1081.63 2046.35 1084.31 2040.14 1090.37 2036.04 1099.8 2031.93 1109.23 2029.88 1121.56 2029.88 1136.78 2029.88 1156.07 2031.72 1169.65 2035.39 1177.53 2039.06 1185.41 2045.27 1190.69 2054.02 1193.37 2062.76 1196.04 2074.26 1197.38 2088.52 1197.38 2101.91 1197.38 2113.19 1196.69 2122.37 1195.29 2131.55 1193.9 2136.52 1193.2 2137.27 1193.2 2138.14 1193.2 2138.98 1193.58 2139.79 1194.33 2140.59 1195.08 2141 1196.1 2141 1197.38 2141 1200.06 2139.73 1203.87 2137.19 1208.8 2134.66 1213.73 2131.96 1217.21 2129.09 1219.25 2126.23 1221.28 2120.43 1222.92 2111.68 1224.15 2102.93 1225.38 2092.14 1226 2079.29 1226 2058.44 1226 2042.27 1223.35 2030.77 1218.04 2019.27 1212.74 2010.77 1203.9 2005.26 1191.52 1999.75 1179.14 1997 1161.59 1997 1138.87 1997 1117.97 2000.24 1100.58 2006.72 1086.7 2013.2 1072.82 2022.4 1063.07 2034.34 1057.44 2046.27 1051.81 2063.57 1049 2086.25 1049Z" fill-rule="evenodd"/><path d="M2260.64 1049C2293.97 1049 2315.87 1056.03 2326.32 1070.09 2336.77 1084.15 2342 1105.98 2342 1135.6 2342 1165.76 2336.21 1188.7 2324.63 1204.42 2313.06 1220.14 2289.74 1228 2254.69 1228 2225.31 1228 2204.36 1221.51 2191.81 1208.52 2179.27 1195.54 2173 1172.89 2173 1140.59 2173 1109.69 2179.11 1086.69 2191.33 1071.62 2203.55 1056.54 2226.65 1049 2260.64 1049ZM2259.67 1076.2C2237.27 1076.2 2222.61 1081.52 2215.69 1092.14 2208.78 1102.76 2205.32 1118.38 2205.32 1138.98 2205.32 1159.8 2208.38 1175.15 2214.49 1185.02 2220.6 1194.89 2234.43 1199.83 2255.97 1199.83 2270.34 1199.83 2281.3 1198.03 2288.86 1194.44 2296.41 1190.84 2301.83 1183.92 2305.1 1173.67 2308.37 1163.42 2310 1151.27 2310 1137.21 2310 1121.87 2308.45 1109.74 2305.34 1100.83 2302.23 1091.93 2297.32 1085.59 2290.62 1081.84 2283.92 1078.08 2273.61 1076.2 2259.67 1076.2Z" fill-rule="evenodd"/><path d="M2861.55 1049C2882.09 1049 2897.1 1050.74 2906.56 1054.23 2916.03 1057.72 2922.64 1064.27 2926.38 1073.88 2930.13 1083.49 2932 1100.81 2932 1125.82L2932 1216.5C2932 1219.07 2930.77 1220.63 2928.31 1221.17 2925.85 1221.71 2918.06 1222.64 2904.96 1223.99 2891.85 1225.33 2877.49 1226 2861.87 1226 2828.38 1226 2807.2 1222.19 2798.32 1214.57 2789.44 1206.94 2785 1193.52 2785 1174.3 2785 1163.24 2786.31 1154.01 2788.93 1146.6 2791.55 1139.19 2794.87 1134.68 2798.88 1133.07 2802.89 1131.46 2809.77 1129.93 2819.5 1128.48 2829.24 1127.03 2842.91 1125.66 2860.51 1124.37 2878.11 1123.09 2889.15 1122.44 2893.65 1122.44 2898.14 1122.44 2900.39 1120.24 2900.39 1115.84 2900.39 1102.85 2899.02 1093.93 2896.29 1089.1 2893.56 1084.27 2889.29 1081.16 2883.45 1079.76 2877.62 1078.37 2867.17 1077.67 2852.08 1077.67 2837.1 1077.67 2824.37 1078.42 2813.89 1079.92 2803.4 1081.43 2798.11 1082.18 2798 1082.18 2797.04 1082.18 2796.1 1081.88 2795.19 1081.29 2794.28 1080.7 2793.83 1079.71 2793.83 1078.31 2793.83 1074.66 2795.86 1069.62 2799.92 1063.17 2803.99 1056.73 2811.61 1052.76 2822.79 1051.25 2833.97 1049.75 2846.89 1049 2861.55 1049ZM2893.48 1147.57C2880.22 1147.57 2865.83 1148.18 2850.32 1149.42 2834.8 1150.65 2825.36 1152.4 2821.99 1154.65 2818.62 1156.91 2816.94 1163.13 2816.94 1173.34 2816.94 1184.39 2819.8 1191.67 2825.52 1195.16 2831.25 1198.65 2842.72 1200.39 2859.94 1200.39 2867.22 1200.39 2874.74 1200.07 2882.49 1199.43 2890.25 1198.78 2895.12 1197.44 2897.1 1195.4 2899.07 1193.36 2900.06 1188.42 2900.06 1180.58L2900.06 1153.85C2900.06 1151.06 2899.58 1149.31 2898.62 1148.61 2897.66 1147.91 2895.95 1147.57 2893.48 1147.57Z" fill-rule="evenodd"/><path d="M2491.99 1052 2516.14 1052C2517.85 1052 2518.93 1052.3 2519.36 1052.88 2519.79 1053.47 2520 1054.74 2520 1056.67L2520 1219.33C2520 1222.44 2518.6 1224 2515.81 1224L2490.7 1224C2489.09 1224 2488.07 1223.71 2487.64 1223.12 2487.21 1222.53 2487 1221.26 2487 1219.33L2487 1056.67C2487 1053.56 2488.66 1052 2491.99 1052Z" fill-rule="evenodd"/></g></svg>